<svg width="38" height="37" viewBox="0 0 38 37" fill="none" xmlns="http://www.w3.org/2000/svg">
<path d="M13.1728 23.6536C14.6317 23.6536 15.8192 23.1498 15.8192 21.5558C15.8192 19.9288 14.8268 19.2929 13.2491 19.2846H9.34732V23.6536H13.1728ZM12.7147 12.95H9.3558V16.65H12.9777C14.2585 16.65 15.1661 16.1049 15.1661 14.7587C15.1661 13.2969 14.004 12.95 12.7147 12.95ZM23.6991 19.1277H28.975C28.8308 17.5998 28.0165 16.6748 26.3879 16.6748C24.8357 16.6748 23.8009 17.6163 23.6991 19.1277ZM32.5714 0H5.42857C2.43438 0 0 2.37031 0 5.28571V31.7143C0 34.6297 2.43438 37 5.42857 37H32.5714C35.5656 37 38 34.6297 38 31.7143V5.28571C38 2.37031 35.5656 0 32.5714 0ZM29.6451 12.6362H23.046V11.0752H29.6451V12.6362ZM16.4299 17.4842C18.4317 18.0375 19.3987 19.7554 19.3987 21.7458C19.3987 24.9667 16.625 26.346 13.6647 26.3625H5.76786V10.5054H13.4442C16.2348 10.5054 18.6522 11.2734 18.6522 14.4283C18.6522 16.0223 17.8888 16.8069 16.4299 17.4842ZM26.4982 14.2962C30.1879 14.2962 32.2321 17.129 32.2321 20.5234C32.2321 20.6556 32.2237 20.796 32.2152 20.9364C32.2152 21.0025 32.2067 21.0603 32.2067 21.1181H23.7076C23.7076 22.9516 24.7 24.0335 26.6 24.0335C27.5839 24.0335 28.8478 23.5214 29.1616 22.5386H32.0201C31.1379 25.1732 29.3143 26.4038 26.4982 26.4038C22.783 26.4038 20.4674 23.9509 20.4674 20.3748C20.4674 16.9225 22.9018 14.2962 26.4982 14.2962Z" fill="black"/>
</svg>
